<svg width="16" height="17" viewBox="0 0 16 17" fill="none" xmlns="http://www.w3.org/2000/svg">
<path d="M16 15.5312C15.9792 14.9062 15.8125 14.3021 15.5 13.7188C15.1875 13.1354 14.7604 12.6146 14.2188 12.1562C13.6771 11.6979 13.0312 11.3021 12.2812 10.9688C11.5521 10.6354 10.75 10.4062 9.875 10.2812V8.9375C9.97917 8.85417 10.0833 8.73958 10.1875 8.59375C10.2917 8.44792 10.3854 8.30208 10.4688 8.15625C10.5521 8.01042 10.625 7.85417 10.6875 7.6875C10.75 7.52083 10.8125 7.375 10.875 7.25C10.9583 7.1875 11.0312 7.13542 11.0938 7.09375C11.1771 7.03125 11.25 6.95833 11.3125 6.875C11.375 6.77083 11.4271 6.67708 11.4688 6.59375C11.5312 6.51042 11.5833 6.39583 11.625 6.25C11.6667 6.10417 11.6979 5.94792 11.7188 5.78125C11.7396 5.61458 11.7396 5.47917 11.7188 5.375C11.6979 5.25 11.6667 5.125 11.625 5C11.5833 4.875 11.5208 4.79167 11.4375 4.75C11.4375 4.66667 11.4375 4.60417 11.4375 4.5625C11.4375 4.52083 11.4375 4.46875 11.4375 4.40625C11.4583 4.32292 11.4583 4.26042 11.4375 4.21875C11.4375 4.17708 11.4375 4.11458 11.4375 4.03125C11.4167 3.90625 11.4062 3.78125 11.4062 3.65625C11.4271 3.51042 11.4479 3.39583 11.4688 3.3125C11.4896 3.20833 11.5104 3.11458 11.5312 3.03125C11.5521 2.92708 11.5833 2.84375 11.625 2.78125C11.6458 2.69792 11.6667 2.625 11.6875 2.5625C11.7083 2.5 11.7292 2.42708 11.75 2.34375C11.7708 2.26042 11.7708 2.1875 11.75 2.125C11.75 2.04167 11.7396 1.94792 11.7188 1.84375C11.6146 1.57292 11.4583 1.32292 11.25 1.09375C11.0625 0.84375 10.8229 0.645833 10.5312 0.5C10.2396 0.354167 9.90625 0.239583 9.53125 0.15625C9.15625 0.0520833 8.75 0.0104167 8.3125 0.03125L8.0625 0C7.75 0.0416667 7.48958 0.09375 7.28125 0.15625C7.07292 0.197917 6.89583 0.270833 6.75 0.375C6.625 0.479167 6.52083 0.59375 6.4375 0.71875C6.35417 0.822917 6.28125 0.947917 6.21875 1.09375C6.19792 1.07292 6.1875 1.08333 6.1875 1.125C6.1875 1.14583 6.17708 1.15625 6.15625 1.15625C6.15625 1.15625 6.14583 1.16667 6.125 1.1875C6.125 1.20833 6.125 1.20833 6.125 1.1875C5.72917 1.25 5.41667 1.36458 5.1875 1.53125C4.97917 1.67708 4.82292 1.88542 4.71875 2.15625C4.63542 2.40625 4.58333 2.66667 4.5625 2.9375C4.5625 3.20833 4.5625 3.48958 4.5625 3.78125V4.09375C4.5625 4.15625 4.5625 4.20833 4.5625 4.25C4.5625 4.29167 4.5625 4.34375 4.5625 4.40625C4.5625 4.46875 4.5625 4.52083 4.5625 4.5625C4.5625 4.60417 4.57292 4.65625 4.59375 4.71875C4.48958 4.78125 4.40625 4.875 4.34375 5C4.28125 5.125 4.23958 5.25 4.21875 5.375C4.21875 5.5 4.22917 5.65625 4.25 5.84375C4.29167 6.01042 4.34375 6.16667 4.40625 6.3125C4.44792 6.4375 4.48958 6.54167 4.53125 6.625C4.59375 6.6875 4.65625 6.76042 4.71875 6.84375C4.78125 6.92708 4.84375 7 4.90625 7.0625C4.96875 7.10417 5.04167 7.14583 5.125 7.1875C5.1875 7.33333 5.25 7.5 5.3125 7.6875C5.39583 7.85417 5.47917 8.02083 5.5625 8.1875C5.64583 8.33333 5.73958 8.48958 5.84375 8.65625C5.96875 8.80208 6.09375 8.92708 6.21875 9.03125V10.25C5.32292 10.375 4.5 10.6042 3.75 10.9375C3 11.2708 2.34375 11.6667 1.78125 12.125C1.23958 12.5833 0.8125 13.1146 0.5 13.7188C0.1875 14.3021 0.0208333 14.9062 0 15.5312V16.0312L16 16V15.5625V15.5312ZM1 15.0625C1.08333 14.5833 1.28125 14.125 1.59375 13.6875C1.92708 13.2292 2.34375 12.8333 2.84375 12.5C3.36458 12.1667 3.94792 11.875 4.59375 11.625C5.26042 11.375 5.97917 11.2083 6.75 11.125L7.15625 11.0625V8.5625L6.96875 8.40625C6.86458 8.36458 6.77083 8.28125 6.6875 8.15625C6.60417 8.03125 6.51042 7.90625 6.40625 7.78125C6.32292 7.63542 6.23958 7.46875 6.15625 7.28125C6.07292 7.07292 6 6.875 5.9375 6.6875L5.875 6.40625L5.59375 6.375C5.57292 6.35417 5.55208 6.34375 5.53125 6.34375C5.51042 6.32292 5.47917 6.29167 5.4375 6.25C5.41667 6.20833 5.38542 6.16667 5.34375 6.125C5.32292 6.08333 5.30208 6.02083 5.28125 5.9375C5.26042 5.91667 5.23958 5.88542 5.21875 5.84375C5.21875 5.80208 5.20833 5.77083 5.1875 5.75C5.1875 5.72917 5.17708 5.69792 5.15625 5.65625C5.15625 5.61458 5.15625 5.59375 5.15625 5.59375L5.65625 5.6875L5.5625 5.03125C5.54167 4.92708 5.53125 4.84375 5.53125 4.78125C5.53125 4.69792 5.52083 4.61458 5.5 4.53125C5.5 4.44792 5.5 4.375 5.5 4.3125C5.5 4.25 5.5 4.17708 5.5 4.09375V3.75C5.5 3.41667 5.5 3.15625 5.5 2.96875C5.52083 2.78125 5.55208 2.625 5.59375 2.5C5.65625 2.375 5.72917 2.29167 5.8125 2.25C5.91667 2.20833 6.05208 2.16667 6.21875 2.125C6.34375 2.14583 6.44792 2.125 6.53125 2.0625C6.63542 2 6.71875 1.94792 6.78125 1.90625C6.84375 1.84375 6.89583 1.77083 6.9375 1.6875C6.97917 1.60417 7.02083 1.55208 7.0625 1.53125C7.08333 1.42708 7.11458 1.35417 7.15625 1.3125C7.19792 1.25 7.25 1.19792 7.3125 1.15625C7.39583 1.09375 7.5 1.05208 7.625 1.03125C7.75 1.01042 7.90625 0.979167 8.09375 0.9375L8.3125 0.96875C8.5 0.947917 8.71875 0.958333 8.96875 1C9.23958 1.04167 9.48958 1.10417 9.71875 1.1875C9.96875 1.25 10.1875 1.36458 10.375 1.53125C10.5833 1.69792 10.7292 1.90625 10.8125 2.15625C10.8125 2.17708 10.8125 2.19792 10.8125 2.21875C10.8125 2.21875 10.8021 2.23958 10.7812 2.28125C10.7812 2.30208 10.7708 2.32292 10.75 2.34375C10.75 2.36458 10.75 2.39583 10.75 2.4375C10.7083 2.5 10.6667 2.59375 10.625 2.71875C10.5833 2.84375 10.5521 2.97917 10.5312 3.125C10.5104 3.25 10.4896 3.40625 10.4688 3.59375C10.4688 3.76042 10.4792 3.94792 10.5 4.15625C10.5 4.21875 10.5 4.27083 10.5 4.3125C10.5 4.35417 10.5 4.40625 10.5 4.46875C10.5 4.53125 10.4896 4.58333 10.4688 4.625C10.4688 4.66667 10.4688 4.72917 10.4688 4.8125L10.375 5.53125H10.8125C10.8125 5.53125 10.8125 5.55208 10.8125 5.59375C10.8125 5.63542 10.8021 5.67708 10.7812 5.71875C10.7812 5.73958 10.7708 5.78125 10.75 5.84375C10.75 5.88542 10.7396 5.91667 10.7188 5.9375C10.6979 6.02083 10.6771 6.08333 10.6562 6.125C10.6354 6.16667 10.6042 6.21875 10.5625 6.28125C10.5417 6.32292 10.5208 6.35417 10.5 6.375C10.5 6.375 10.5 6.38542 10.5 6.40625L10.1562 6.375L10.0625 6.71875C10 6.90625 9.92708 7.09375 9.84375 7.28125C9.76042 7.46875 9.67708 7.625 9.59375 7.75C9.53125 7.875 9.45833 8 9.375 8.125C9.29167 8.22917 9.19792 8.30208 9.09375 8.34375L8.90625 8.53125V11.0625L9.34375 11.1562C10.0938 11.2188 10.7917 11.375 11.4375 11.625C12.0833 11.875 12.6562 12.1771 13.1562 12.5312C13.6562 12.8646 14.0625 13.2604 14.375 13.7188C14.7083 14.1562 14.9167 14.6042 15 15.0625L1 15.0938V15.0625Z" fill="#50649C" fill-opacity="0.8"/>
</svg>
