<svg width="14" height="14" viewBox="0 0 14 14" fill="none" xmlns="http://www.w3.org/2000/svg">
<path d="M13.4435 11.7739C13.913 12.2435 13.913 12.9739 13.4435 13.4435C13.2087 13.6783 12.9217 13.7826 12.6087 13.7826C12.2956 13.7826 12.0087 13.6783 11.7739 13.4435L7 8.66956L2.22609 13.4435C1.9913 13.6783 1.70435 13.7826 1.3913 13.7826C1.07826 13.7826 0.791302 13.6783 0.55652 13.4435C0.0869544 12.9739 0.0869544 12.2435 0.55652 11.7739L5.33043 7L0.55652 2.22608C0.0869544 1.75652 0.0869544 1.02608 0.55652 0.55652C1.02608 0.0869544 1.75652 0.0869544 2.22609 0.55652L7 5.33043L11.7739 0.55652C12.2435 0.0869544 12.9739 0.0869544 13.4435 0.55652C13.913 1.02608 13.913 1.75652 13.4435 2.22608L8.66956 7L13.4435 11.7739Z" fill="#A5ABC3"/>
</svg>
