<svg width="16" height="16" viewBox="0 0 16 16" fill="none" xmlns="http://www.w3.org/2000/svg">
<path d="M8 0C6.89583 0 5.85417 0.208333 4.875 0.625C3.91667 1.04167 3.07292 1.61458 2.34375 2.34375C1.61458 3.07292 1.04167 3.92708 0.625 4.90625C0.208333 5.86458 0 6.89583 0 8C0 9.10417 0.208333 10.1458 0.625 11.125C1.04167 12.0833 1.61458 12.9271 2.34375 13.6562C3.07292 14.3854 3.91667 14.9583 4.875 15.375C5.85417 15.7917 6.89583 16 8 16C9.10417 16 10.1354 15.7917 11.0938 15.375C12.0729 14.9583 12.9271 14.3854 13.6562 13.6562C14.3854 12.9271 14.9583 12.0833 15.375 11.125C15.7917 10.1458 16 9.10417 16 8C16 6.89583 15.7917 5.86458 15.375 4.90625C14.9583 3.92708 14.3854 3.07292 13.6562 2.34375C12.9271 1.61458 12.0729 1.04167 11.0938 0.625C10.1354 0.208333 9.10417 0 8 0ZM8 15.0625C7.02083 15.0625 6.10417 14.875 5.25 14.5C4.39583 14.125 3.64583 13.625 3 13C2.375 12.3542 1.875 11.6042 1.5 10.75C1.125 9.89583 0.9375 8.97917 0.9375 8C0.9375 7.02083 1.125 6.10417 1.5 5.25C1.875 4.39583 2.375 3.65625 3 3.03125C3.64583 2.38542 4.39583 1.875 5.25 1.5C6.10417 1.125 7.02083 0.9375 8 0.9375C8.97917 0.9375 9.89583 1.125 10.75 1.5C11.6042 1.875 12.3438 2.38542 12.9688 3.03125C13.6146 3.65625 14.125 4.39583 14.5 5.25C14.875 6.10417 15.0625 7.02083 15.0625 8C15.0625 8.97917 14.875 9.89583 14.5 10.75C14.125 11.6042 13.6146 12.3542 12.9688 13C12.3438 13.625 11.6042 14.125 10.75 14.5C9.89583 14.875 8.97917 15.0625 8 15.0625ZM8.46875 11.6562H9.40625V12.5938H6.59375V11.6562H7.53125V7.46875H6.625V6.53125H8.46875V11.6562ZM6.75 4.6875C6.75 4.5625 6.77083 4.44792 6.8125 4.34375C6.875 4.21875 6.94792 4.11458 7.03125 4.03125C7.11458 3.94792 7.20833 3.88542 7.3125 3.84375C7.4375 3.78125 7.5625 3.75 7.6875 3.75C7.8125 3.75 7.92708 3.78125 8.03125 3.84375C8.15625 3.88542 8.26042 3.94792 8.34375 4.03125C8.42708 4.11458 8.48958 4.21875 8.53125 4.34375C8.59375 4.44792 8.625 4.5625 8.625 4.6875C8.625 4.8125 8.59375 4.9375 8.53125 5.0625C8.48958 5.16667 8.42708 5.26042 8.34375 5.34375C8.26042 5.42708 8.15625 5.5 8.03125 5.5625C7.92708 5.60417 7.8125 5.625 7.6875 5.625C7.5625 5.625 7.4375 5.60417 7.3125 5.5625C7.20833 5.5 7.11458 5.42708 7.03125 5.34375C6.94792 5.26042 6.875 5.16667 6.8125 5.0625C6.77083 4.9375 6.75 4.8125 6.75 4.6875Z" fill="#50649C"/>
</svg>
